/* XPM */
static char *result[] = {
/* columns rows colors chars-per-pixel */
"24 83 52 1 ",
"  c black",
". c #000001",
"X c #010002",
"o c #000102",
"O c #010102",
"+ c #010103",
"@ c #0D0A16",
"# c #0C0A17",
"$ c #0D0A17",
"% c #0D0B17",
"& c #421020",
"* c #421120",
"= c #401A22",
"- c #7F3E38",
"; c #7F3F38",
": c #0F1E46",
"> c #0E1F46",
", c #0F1F46",
"< c #0F1F47",
"1 c #353D5E",
"2 c #353C5F",
"3 c #343D5F",
"4 c #353D5F",
"5 c #86102A",
"6 c #86112A",
"7 c #86102B",
"8 c #90352F",
"9 c #FE6A00",
"0 c #FF6A00",
"q c #FF6B00",
"w c #FF6A01",
"e c #A24C56",
"r c #A24C57",
"t c #A34C57",
"y c #A24D57",
"u c #FEA400",
"i c #FFA400",
"p c orange",
"a c #FFA401",
"s c #027E86",
"d c #037E86",
"f c #037F86",
"g c #037E87",
"h c #FAB6A4",
"j c #FBB6A4",
"k c #FAB7A4",
"l c #FAB6A5",
"z c #B8C1FD",
"x c #D9E0EB",
"c c #D9E1EB",
"v c #F1FFE8",
"b c None",
/* pixels */
"bbbbbbbbbObbbObbbbbbbbbb",
"bbbbbbbbOiXbOp+bbbbbbbbb",
"bbbbOOOO50iO50iObObbbbbb",
"bbbbX500050i050iOiObbbbb",
"bbbbb+56000w00090iObbbbb",
"bbbOOi0q0000000000iObbbb",
"bbOui0000000900000uXbbbb",
"bXi00w000000000000iObbbb",
"Oi000500000w0000000iObbb",
"o0055i00000w0000i09iObbb",
"bOOii00000q000000i9iObbb",
"Oii00000005i00090a0iObbb",
"bO50000005i00q000O00Obbb",
"bbO900005Oi000055+0Obbbb",
"bO755095Oi0w5 OO500Obbbb",
"bOOOO00Oi005Oz8= OObbbbb",
"bbbbO05O+O5Orv8=rObbbbbb",
"bbbOi55OrtOrhhhjrObbbbbb",
"bbbOOO5OrhhlhhhhhhObbbbb",
"bbbbbO55+hkhhhhhhhObbbbb",
"bbbbbbO5+thhhhhhhObbbbbb",
"bbbbbbO5OOyrhhhhhObbbbbb",
"bbbbbbbOer  trhhObbbbbbb",
"bbbbbbbOrrrr  rrObbbbbbb",
"bbbbbbO5+trrOb  bbbbbbbb",
"bbbbbbO55OOhObbbbbbbbbbb",
"bbbbbOdO+55+Obbbbbbbbbbb",
"bbbbbOdddOO5Obbbbbbbbbbb",
"bbbbOddddddO5Obbbbbbbbbb",
"bbbbOddfddddO5Obbbbbbbbb",
"bbbodddddddddOObbbbbbbbb",
"bbbOfdsddd4ddO5Obbbbbbbb",
"bbbodddddd4dddOObbbbbbbb",
"bbbOdgddd3O4ddddObbbbbbb",
"bbboddddd4O4ddgdObbbbbbb",
"bbbOdgdfd4O14ddddObbbbbb",
"bbbOddddd4O44ddddObbbbbb",
"bbbOddddd4O44dgdddObbbbb",
"bbbOdddd44O44ddddgObbbbb",
"bbbOdddd44O142ddddobbbbb",
"bbbOddsd44O444dddddObbbb",
"bbOddddd44O444gddddObbbb",
"bb+ddddd44O4444ddddObbbb",
"bbOddddd44O14243fddXbbbb",
"bbOsdddd1O44444441dObbbb",
"bXddddd44O44444444OObbbb",
"bOdddds44O44441oO ; bbbb",
"bOdsddd44OOOoOO;;;  bbbb",
"bOddddd44O;;;-;OOOddObbb",
"bOdddd424OOOOOO424ddObbb",
"bOds44424O4444444dddObbb",
"bbO444444O4444444gddObbb",
"bbbOOO444O444444fdsdObbb",
"bbb hrOOO4444414dddO,Obb",
"bb.hhrr 4424444dfddO,Obb",
"bb hhhr 4444444ddddO,Obb",
"b hjhhr 43444444dddO,Obb",
"b hhhl $  44324444dO,>Ob",
"bb  kr $$$OOOOOOOOO,,,Ob",
"bbbb  $$$$$O$$$$$,,,,,Ob",
"bbbbbO$$$$$O$$$#$,,:,,Ob",
"bbbbbO$$$$$ $$$$$,,,,,,O",
"bbbbbO$$$$$ $$$$%$,,,,,O",
"bbbbbO$$$$ $#$$$%$,,,,,O",
"bbbbbO$$$$ $$$$$$$,,,>,O",
"bbbbbO$$$$ $$$$#:$,,,,Ob",
"bbbbO$$$$ $$#$$$,,,,,,Ob",
"bbbbO$$$$ $$$$$#:<,,,,Ob",
"bbbbO$$$$ $$$$$$,,,,,,Ob",
"bbbbO$$$ $$$$$$$:,,,,Obb",
"bbbbO$$$ $%$$$@$,,,,,Obb",
"bbbO$@$$ #$@$$@#$,,:,Obb",
"bbbO$$$ $$$$$%@$$$,,<Obb",
"bbbO$$$ $$$$#$$$$$$$Obbb",
"bbbbO$OOO$$$$%$$$$$$Obbb",
"bbbbbOOxcOO$$%$$%$OXbbbb",
"bbbbbOcccc*OOOOOOObbbbbb",
"bbbbbOcccc&Obbbbbbbbbbbb",
"bbbbb+Occcc&Obbbbbbbbbbb",
"bbbbb+cOOccc&Obbbbbbbbbb",
"bbbbbOcccOXcccObbbbbbbbb",
"bbbbbOcccccOOObbbbbbbbbb",
"bbbbb+ccccccccObbbbbbbbb"
};
