/* XPM */
static char *result[] = {
/* columns rows colors chars-per-pixel */
"64 64 69 1 ",
"  c black",
". c #010100",
"X c #010101",
"o c #020101",
"O c #030300",
"+ c #010102",
"@ c #050402",
"# c #0C0101",
"$ c #0E0000",
"% c #080809",
"& c #0B0B0B",
"* c gray6",
"= c #1B0203",
"- c #141308",
"; c #101010",
": c #111111",
"> c #220203",
", c #032539",
"< c #484848",
"1 c #ED0001",
"2 c #ED0101",
"3 c #F20101",
"4 c #F70507",
"5 c #F90103",
"6 c #F80607",
"7 c #F90708",
"8 c #F50B0A",
"9 c #F70B0D",
"0 c #F82424",
"q c #F42E2D",
"w c #CFCF09",
"e c #D1D008",
"r c #D1D108",
"t c #D1D009",
"y c #EAEAEA",
"u c #F1F1F1",
"i c #F8F8F8",
"p c #F9F9F9",
"a c #FAFBF9",
"s c gray98",
"d c #FBFBFA",
"f c #FBFBFB",
"g c #FCFAFA",
"h c #F9FCFB",
"j c #FBFCFB",
"k c #FCFCF9",
"l c #FCFCFB",
"z c #FCFBFC",
"x c #FBFCFC",
"c c #FBFCFD",
"v c #FAFDFD",
"b c #F9FEFC",
"n c #FAFEFC",
"m c gray99",
"M c #FDFCFC",
"N c #FDFDFC",
"B c #FCFCFD",
"V c #FDFCFD",
"C c #FCFDFD",
"Z c #FDFDFD",
"A c #FEFDFD",
"S c #FEFEFD",
"D c #FDFCFE",
"F c #FCFDFE",
"G c #FDFDFE",
"H c #FEFDFE",
"J c #FCFEFE",
"K c #FEFEFE",
"L c white",
/* pixels */
",,,,,,,,,,,,,,,,,,,,,,,,,,,,,,,,,,,,,,,,,,,,,,,,,,,,,,,,,,,,,,,,",
",,,,,,,,,,,,,,,,,,,,,,,,,,,,,,,,,,,,,,,,,,,,,,,,,,,,,,,,,,,,,,,,",
",,,,,,,,,,,,,,,,,,,,,,,,,,,,,,,,,,,,,,,,,,,,,,,,,,,,,,,,,,,,,,,,",
",,,,,,,,,,,,,,,,,,,,,,,,,,,,,,,,,,,,,,,,,,,,,,,,,,,,,,,,,,,,,,,,",
",,,,,,,,,,,,,,,,,,,,,,,,,,,,,,,,,,,,,,,,,,,,,,,,,,,,,,,,,,,,,,,,",
",,,,,,,,,,,,,,,,,,,,,,,,,,,,,,,,,,,,,,,,,,,,,,,,,,,,,,,,,,,,,,,,",
",,,,,,,,,,,,,,,,,,,,,,,,,,,,,,,,,,,,,,,,,,,,,,,,,,,,,,,,,,,,,,,,",
",,,,,,,,,,,,,,,,,,,,,,,,,,,,,,,,,,,,,,,,,,,,,,,,,,,,,,,,,,,,,,,,",
",,,,,,,,,,,,,,,,,,,,,,,, :  ,,,,,,,,,,,,,,, ,,,,,,,,,,,,,,,,,,,,",
",,,,,,,,,,,,,,,,,,,,,,,     ,,,,,,,,,  ,,,,  ,,,,,,,,,,,,,,,,,,,",
",,,,,,,,,,,,,,,,,,,,,<   s  ,,,,,,,,,  ,,,,    ,,,,,,,,,,,,,,,,,",
",,,,,,,,,,,,,,,,,,,,,<   m  ,,,,,,,  8         ,,,,,,,,,,,,,,,,,",
",,,,,,,,,,,,,,,,,,,,,<   KK  ,,,,,, #88     L  ,,,,,,,,,,,,,,,,,",
",,,,,,,,,,,,,,,,,,,,,<   KK  ,,,,,, 888p  sKL  ,,,,,,,,,,,,,,,,,",
",,,,,,,,,,,,,,,,,,,,,<   KK    ,,,  888888ZKL8   ,,,,,,,,,,,,,,,",
",,,,,,,,,,,,,,,,,,,,<<   KKKm* ,,  888888GKGL88  ,,,,,,,,,,,,,,,",
",,,,,,,,,,,,,,,,,,,<<  KKKKKm  ,  88888ZZKKN888  ,,,,,,,,,,,,,,,",
",,,,,,,,,,,,,,,,,,<    KKKK   ,, =88788KKKF8888  ,,,,,,,,,,,,,,,",
",,,,,,,,,,,,,,,,,,<   KKKKK  ,,  >88988KKm88888X ,,,,,,,,,,,,,,,",
",,,,,,,,,,,,,,,,,,<   KKKKK  ,, 888888KKK888888d  ,,,,,,,,,,,,,,",
",,,,,,,,,,,,,,,,,,<   y  KK     88888LKM88888888  ,,,,,,,,,,,,,,",
",,,,,,,,,,,,,,,,,,,      ZKKm  g8888ZLz888888888  ,,,,,,,,,,,,,,",
",,,,,,,,,,,,,,<  ,,,      KKZLL0888LK8888888Lq88  ,,,,,,,,,,,,,,",
",,,,,,,,,,,,,,<    ,      KKLLL888bAL88888888888  ,,,,,,,,,,,,,,",
",,,,,,,,,,,,,,<    ,,,,   KLLVL88lLLL8888jk8588h  ,,,,,,,,,,,,,,",
",,,,,,,,,,,,,,< &   ,,,   KLm8888L8888888888888m  ,,,,,,,,,,,,,,",
",,,,,,,,,,,,,,< ;K       KKLM8888888888AZ888KKGC  ,,,,,,,,,,,,,,",
",,,,,,,,,,,,,,< ;KZu    ZKKLV88m8888ZHDKKDmZKKKZ  ,,,,,,,,,,,,,,",
",,,,,,,,,,,,,,<    i   KKKLL888V8888SKKKKKKKKLLL  ,,,,,,,,,,,,,,",
",,,,,,,,,,,,,,,,<  sKKKKKLLL888888nAKKKKKKKKZLLL  ,,,,,,,,,,,,,,",
",,,,,,,,,,,,,,,,<  LLKKLLLK88L888LCGKKKKKLLLLLLL  ,,,,,,,,,,,,,,",
",,,,,,,,,,,,,,,,<   LLLLLL8888888HJKKKLLLLLLLLLL  ,,,,,,,,,,,,,,",
",,,,,,,,,,,,,,,,,,  LLLLLL88a88cBZKKKLLLLLLLLLLL  ,,,,,,,,,,,,,,",
",,,,,,,,,,,,,,,,,,<   LLLL88x88ZLLKKKS       LL  ,,,,,,,,,,,,,,,",
",,,,,,,,,,,,,,,,,,,    LLLLLLKKZLL     eee. LLL ,,,,,,,,,,,,,,,,",
",,,,,,,,,,,,,,,,,,,<<     LLLKKLL  XX+eeeeO LLL ,,,,,,,,,,,,,,,,",
",,,,,,,,,,,,,,,,,,,,,      LLLLL  eeeeeeee.LLLL ,,,,,,,,,,,,,,,,",
",,,,,,,,,,,,,,,,,,,,,,<    LLLLL -eettrwe%  888 ,,,,,,,,,,,,,,,,",
",,,,,,,,,,,,,,,,,,,,,,<<<< LLLL   @@@@@@o  8848 ,,,,,,,,,,,,,,,,",
",,,,,,,,,,,,,,,,,,,,,,,,,<  ZLL           8838  ,,,,,,,,,,,,,,,,",
",,,,,,,,,,,,,,,,,,,,,,,,,<  LLLLLKLLLLLL88862$ ,,,,,,,,,,,,,,,,,",
",,,,,,,,,,,,,,,,,,,,,,,,,<  LLLLLZK888888L881$ ,,,,,,,,,,,,,,,,,",
",,,,,,,,,,,,,,,,,,,,,,,,,<  LLLKKL8888888LL88  ,,,,,,,,,,,,,,,,,",
",,,,,,,,,,,,,,,,,,,,,,,,,<<  LLKK888LLLLvLLL   ,,,,,,,,,,,,,,,,,",
",,,,,,,,,,,,,,,,,,,,,,,,,,<<   KK88LLKKLLLL  ,,,,,,,,,,,,,,,,,,,",
",,,,,,,,,,,,,,,,,,,,,,,,,,,,   KKKKKKKKLLL   ,,,,,,,,,,,,,,,,,,,",
",,,,,,,,,,,,,,,,,,,,,,,,,,,,<  KKKKKKKLLL    ,,,,,,,,,,,,,,,,,,,",
",,,,,,,,,,,,,,,,,,,,,,,,,,,,<  KKKKKKKLLL   ,,,,,,,,,,,,,,,,,,,,",
",,,,,,,,,,,,,,,,,,,,,,,,,,,,<  fZKKKZLL     ,,,,,,,,,,,,,,,,,,,,",
",,,,,,,,,,,,,,,,,,,,,,,,,,,,<  LLKKKLLL   ,,,,,,,,,,,,,,,,,,,,,,",
",,,,,,,,,,,,,,,,,,,,,,,,,,,,<   LLLLLL    ,,,,,,,,,,,,,,,,,,,,,,",
",,,,,,,,,,,,,,,,,,,,,,,,,,,,,,  LLLLL    ,,,,,,,,,,,,,,,,,,,,,,,",
",,,,,,,,,,,,,,,,,,,,,,,,,,,,,,,        ,,,,,,,,,,,,,,,,,,,,,,,,,",
",,,,,,,,,,,,,,,,,,,,,,,,,,,,,,,        ,,,,,,,,,,,,,,,,,,,,,,,,,",
",,,,,,,,,,,,,,,,,,,,,,,,,,,,,,      ,,,,,,,,,,,,,,,,,,,,,,,,,,,,",
",,,,,,,,,,,,,,,,,,,,,,,,,,,,,,,,,,,,,,,,,,,,,,,,,,,,,,,,,,,,,,,,",
",,,,,,,,,,,,,,,,,,,,,,,,,,,,,,,,,,,,,,,,,,,,,,,,,,,,,,,,,,,,,,,,",
",,,,,,,,,,,,,,,,,,,,,,,,,,,,,,,,,,,,,,,,,,,,,,,,,,,,,,,,,,,,,,,,",
",,,,,,,,,,,,,,,,,,,,,,,,,,,,,,,,,,,,,,,,,,,,,,,,,,,,,,,,,,,,,,,,",
",,,,,,,,,,,,,,,,,,,,,,,,,,,,,,,,,,,,,,,,,,,,,,,,,,,,,,,,,,,,,,,,",
",,,,,,,,,,,,,,,,,,,,,,,,,,,,,,,,,,,,,,,,,,,,,,,,,,,,,,,,,,,,,,,,",
",,,,,,,,,,,,,,,,,,,,,,,,,,,,,,,,,,,,,,,,,,,,,,,,,,,,,,,,,,,,,,,,",
",,,,,,,,,,,,,,,,,,,,,,,,,,,,,,,,,,,,,,,,,,,,,,,,,,,,,,,,,,,,,,,,",
",,,,,,,,,,,,,,,,,,,,,,,,,,,,,,,,,,,,,,,,,,,,,,,,,,,,,,,,,,,,,,,,"
};
