/* XPM */
static char *result[] = {
/* columns rows colors chars-per-pixel */
"32 32 131 2 ",
"   c gray4",
".  c #0B0A0A",
"X  c #0A0B0A",
"o  c #0B0B0A",
"O  c #0A0A0B",
"+  c #0B0A0B",
"@  c #0A0B0B",
"#  c #0B0B0B",
"$  c #32110D",
"%  c #362901",
"&  c #032438",
"*  c #022538",
"=  c #032538",
"-  c #022439",
";  c #032439",
":  c #022539",
">  c #032539",
",  c #7D140A",
"<  c #7C150A",
"1  c #7D150A",
"2  c #7C140B",
"3  c #782119",
"4  c #543F3B",
"5  c #713631",
"6  c #7B3F3D",
"7  c #57440C",
"8  c #784340",
"9  c #6E6857",
"0  c #A52416",
"q  c #A42516",
"w  c #C22517",
"e  c #D8382A",
"r  c #D8392A",
"t  c #D8382B",
"y  c #D9382B",
"u  c #D8392B",
"i  c #D9392B",
"p  c #D87161",
"a  c #CE7870",
"s  c #CE7970",
"d  c #CF7970",
"f  c #CF7971",
"g  c #A3891D",
"h  c #AC932C",
"j  c #D0A81F",
"k  c #939292",
"l  c #959594",
"z  c #999898",
"x  c #9D9D9E",
"c  c #9F9E9E",
"v  c #9F9F9F",
"b  c #BA8F91",
"n  c #AEB0B0",
"m  c #B3B2B4",
"M  c #B4B3B5",
"N  c #B5B4B4",
"B  c gray72",
"V  c gray74",
"C  c #FDAB9E",
"Z  c #CAA6A2",
"A  c #E6C0BA",
"S  c gray78",
"D  c #C8C8C9",
"F  c #CACACB",
"G  c #CCCDCD",
"H  c #CDCDCD",
"J  c #CECCCD",
"K  c #CECECF",
"L  c #CECFCF",
"P  c #D0D1D0",
"I  c #D0D0D1",
"U  c #D9D8D9",
"Y  c #D8D9D9",
"T  c #DBDADA",
"R  c #DCDDDD",
"E  c #DCDCDE",
"W  c #EAD0D0",
"Q  c #F6D7D3",
"!  c #F0D8D9",
"~  c #DEE1DE",
"^  c #E0E0E1",
"/  c #E3E2E2",
"(  c #E3E3E2",
")  c #E7E6E7",
"_  c #E9E8E9",
"`  c #E8E9E9",
"'  c #EAEBEA",
"]  c #EEEBEB",
"[  c #ECECEC",
"{  c #ECEEEE",
"}  c #EFEFEF",
"|  c #F1E8E4",
" . c #F9E8E6",
".. c #F8EFEB",
"X. c #FEEDE8",
"o. c #FCEEEE",
"O. c gray94",
"+. c #F1F0F0",
"@. c #F3F2F3",
"#. c #F5F2F3",
"$. c #F4F4F4",
"%. c #F5F4F4",
"&. c #F5F4F5",
"*. c #F4F5F5",
"=. c gray96",
"-. c #F4F6F5",
";. c #F6F6F6",
":. c #F7F6F6",
">. c #F6F7F6",
",. c #F6F7F7",
"<. c gray97",
"1. c #F9F8F8",
"2. c #F9FBFA",
"3. c gray98",
"4. c #FBFCFB",
"5. c #FEFDFB",
"6. c #FEFAFE",
"7. c #FCFDFC",
"8. c #FDFCFD",
"9. c #FDFDFD",
"0. c #FDFEFC",
"q. c #FCFCFE",
"w. c #FDFEFE",
"e. c #FCFFFE",
"r. c #FEFEFE",
"t. c #FFFEFE",
"y. c #FEFFFE",
"u. c #FFFFFE",
"i. c #FFFEFF",
"p. c #FEFFFF",
"a. c white",
/* pixels */
"> > > > : > > > > > > > > ; > > > > > > > > > > > > ; > > > > > ",
"> > > > > > > > > > > > > > > > > > ; > : > > > > = > > > > > : ",
"> > > = > = > > > > > > > ; : > ; > > > > > : > > > > > > > > > ",
"> > > > > > > > > : > > > = = > > > > & > = > = > > > > > = : > ",
"> > > > > > : > > > > > O # # > > > > > ; : > > > > ; > & > > > ",
"> > > > > > > > > > ; > + :.@ > > > > 5 # # @ ; > > > : > > > > ",
"> > > ; > ; > > > > > > # ,.# o > > ; 1 ..@ + # > > : > : : > > ",
"> > > > > > * = > > > - # _ } # & = < < p { W # # > = > = > > > ",
"> > > ; = > > > > > > @ 4.:.o # > 3 u y s 5.< 6 o > > > > > > > ",
"> : > > > > : > > : # t.w.1.# o o q e s d t 2 , X = : > > > > > ",
"> = > : : > > > > ; X 1.# <.,.# A t u s u t u C + : > > > > > > ",
"> > > > > > : # # > > @ . # 9.7.e t s e t t 1 < o > > = > > > > ",
"; : > > > > > # o + ; > # # #.X.u a f u e s < b # > = > > > > * ",
"> > : > ; ; = # +.@ +   @ >.0.y t y r s s s 2.%.O ; > > > : ; = ",
"> > > > > > > > # =.F G i.,.6.t t t t u.i.i.3.[ # > > > > > = = ",
"= : > ; > > > > # @ &.*.e.o.t i e q.-.u.a.$.n N O > > > > > > > ",
"> > = > > > = > ; o M I ( ! t t E ' ~ + o O k z # ; > > = ; > > ",
"> - ; > > : : > = # o Y H O.7.r.T + # 9 % o V c @ ; ; > > > > > ",
"> > > : > > > > > > # # + # } y.# g h j 7 # J x # > > > > > > > ",
"> > ; : > > > > > ; ; > > o 8.+ + # # + # 0 w 8 # > > > > > > > ",
"> > : > > > : ; : & > > > # / ` p.0 0 0 0 0 $ # ; > = > > = ; > ",
"> > > > : > > ; = > > > > @ D ` | 0 0 0 ] Z 4 @ > > > > > ; > > ",
"> > > ; > > > > > > > > > o # R  .Q :.u.y.m O > > > > > > ; > > ",
"> > > > > > ; > > > > > = > + S r.r.;.a.U # ; > : > - > > > > > ",
"> > > : > > > > > = > > : > O B r.@.) ^ # > > > > > > > > ; > > ",
"> > > > > > > > > > > > > > > # K P L # : ; > * > > > > > > > > ",
"> > > > = > > > = : : > > > > # l v o O > > > ; > > > ; > > > > ",
"> > ; = > > > : > > > > > > > # # O > = > > > > > > = > > > > = ",
"> > : > > > > ; > > > : > > > > > > > > > > > > > ; > > > > > > ",
"; > > > > > > > > > > > > > > ; > ; > ; ; > = > > > > > > > > > ",
"> > : : ; : > > > > > > > > > > > : > : > > > > > > ; > > > > > ",
"> = : > > > > > > ; : > > > > > = > > > > > > > = > > > > > > > "
};
