/* XPM */
static char *result[] = {
/* columns rows colors chars-per-pixel */
"64 64 4 1 ",
"  c black",
". c #032539",
"X c #2A2A2A",
"o c #484848",
/* pixels */
"................................................................",
"................................................................",
"................................................................",
"................................................................",
"................................................................",
"................................................................",
"................................................................",
"................................................................",
"................................................................",
"................................................................",
"................................................................",
"................................................................",
"................................................................",
".................XXXXX..........................................",
".................oXXXX..........................................",
".................oX  X..........................................",
"...XXXXX.........oX  X..XXXX....................................",
"...oXXXX.........oX  X..oXXX....................................",
"...oX  X..XXXX...oX  XoooX X....................................",
"...oX  X..oXXX...oX  XXXXX X...........................XXXXX....",
"...oX  X..oX X...oX        X...........................oXXXX....",
"...oX  X..oX X...oX        X...........................oX  X....",
"...oX  XoooX X...oX        X.....XXXXX.................oX  X....",
"...oX  XXXXX X...oX        X.....oXXXX.................oX  X....",
"...oX        X...oX        X.....oX  X...XXXXXX........oX  Xoooo",
"...oX        X...oX        XooooooX  X...oXXXXX....XXXXoX  XXXXX",
"...oX        XooooX        XXXXXXXX  X...oX   X....oXXXoX       ",
"...oX        XXXXXX                  XooooX   X....oX XoX       ",
"ooooX                                XXXXXX   X....oX XXX       ",
"XXXXX                                         X....oX           ",
"                                              XoooooX           ",
"                                              XXXXXXX           ",
"                                                                ",
"XXXXX                                                           ",
"ooooX                                                           ",
"...oX                                                           ",
"...oX                                                           ",
"...oX                                                           ",
"...oX  XXXXX                                                XXXX",
"...oX  XoooX                                                Xooo",
"...oX  X..oX                                                X...",
"...oX  X..oX                                                X...",
"...oXXXX..oX                                                X...",
"...XXXXX..oX XXXXXX                                         X...",
"..........oX XooooX                                   XXXXX X...",
"..........oXXX...oX                                   XoooX X...",
"..........XXXX...oX XXXXXX                    XXXXXX  X..oXXX...",
".................oX XooooX                    XooooX  X..XXXX...",
".................oX X...oX                    X...oX  X.........",
".................oXXX...oX           XXXXXXX  X...oX  X.........",
".................XXXX...oX           XoooooX  X...oX  X.........",
"........................oX           X....oX  X...oX  X.........",
"........................oX           X....oXXXX...oXXXX.........",
"........................oX XXXXXXXX  X....XXXXX...XXXXX.........",
"........................oX XooooooX  X..........................",
"........................oX X.....oX  X..........................",
"........................oXXX.....oX  X..........................",
"........................XXXX.....oX  X..........................",
".................................oX  X..........................",
".................................oX  X..........................",
".................................oX  X..........................",
".................................oX  X..........................",
".................................oXXXX..........................",
".................................XXXXX.........................."
};
