/* XPM */
static char *result[] = {
/* columns rows colors chars-per-pixel */
"32 32 25 1 ",
"  c #060606",
". c #070606",
"X c #070706",
"o c #070607",
"O c #070707",
"+ c #66503A",
"@ c #67503A",
"# c #66513A",
"$ c #67513A",
"% c #66503B",
"& c #67503B",
"* c #66513B",
"= c #844402",
"- c #854402",
"; c #844502",
": c #844403",
"> c #854403",
", c #844503",
"< c #854503",
"1 c #AC5D0C",
"2 c #AD5D0C",
"3 c #AC5C0D",
"4 c #AC5D0D",
"5 c #AD5D0D",
"6 c None",
/* pixels */
":>;=-:<:,::::::::>,,=:::=:==::::",
":::>:::,,::,:>>:>;:::::::,:::::=",
":>,,>:::::::>:=:==::::::::=:::::",
":,:;:4,::,4414414444:::=>44::=::",
":::,:444444#..6+#++444445544:,::",
":=:,::4+4+X..6+++6++@4444+44::::",
";,,::416++X++++6+++66+++*++4::::",
":::::44++.+6++#++6++..+++++3,:::",
"::,::4+6+@++@++6%@6...+@++64::,:",
"=::::4+++@+++66+@6oX+$+++++1::::",
">=::=4++++++6+++ .++#+++++644:=:",
":::::46#@+@++....6+++6+++++64,:>",
",::::4+%66+..++O+6+%#+++%@+64:::",
"::,:446++@.++++6#++++++++++64=::",
"::::4+++6+++++#6++#6%++.+#643:::",
"=:::4#+++6+$6+++++++...++#64::>>",
"-,>>5%#++%#6@#66++o..+@+6++4::::",
"::=:4+6+++++++@+...+6++%+++1<:::",
"::::116+66+++6..+++&+++++@44::::",
":,:::4++++6++.6+6++%6++%+.4::=::",
"=,>::4++++++.++%+66+++...&2:::::",
"::>::5++6+o.+++#++6++..++644>:::",
":::::4+@..+6#+++6#+..@+6+++4::::",
"::::>4+6.#$++6++66.++%+++++4:::,",
":::=:1+6+@++@@++6.+++++++++1::=:",
"::,:44#+6+++++++%.+@+++6+#43::,:",
"::::4%+%++++66+..+6@666X.64::::>",
"::::4+++6++6+..+++%6++..6+34::=:",
"::::4+6%6++++6+++#6++.X++++4:=:=",
"::::344++6+66++++6+%.6+++++4:,:,",
",::::44+++++++6%++..666@6+64:::>",
"::>:::46++66+++++o+666++*6+4=:>:"
};
