/* XPM */
static char *result[] = {
/* columns rows colors chars-per-pixel */
"32 32 7 1 ",
"  c #032438",
". c #022538",
"X c #032538",
"o c #022439",
"O c #032439",
"+ c #022539",
"@ c #032539",
/* pixels */
"@+@+O@@@@@@O@@@+@@@@@@@+@X@@@++@",
"@@+@O@+@@@@@@@@@@@@@@@@@@@@+O@X@",
"O@O@+@@@@@X@@@@@@O@@@@@@@@@@@+@@",
"O@+@@@@@X@@@X@@@@@@@@@@OXX@@+@@+",
"Xo@@@@@@O@@@@@@@@X@@@@++@@@@@@@@",
"@X@X+X@O@@@@@@@O@@@@@OO@O@@@@@+@",
"@X@@@@@O@@XO@@@@O@@@@@@@@X@@@@O@",
"@O@@@@@X@@@@@@@@@X@@@@@@@@@@X@@@",
"@@@+@O@@@O@@@@@@+@+@O@X@@@@@@@@@",
"+@@@@@@@OO@@@+@@@+O@@@@@@@@@X@@+",
"@@@O@O@X+@@@@@@@+@@@@@XX++@@@O@+",
"@@@X@O@@@@O@@@O@@@@@XO @@@@@@@@+",
"@@@@@@@@@@@@O@@@@@@@OO@@@X@O@@@@",
"@+@@@@@@@@@O@@@@@@@@@@@@@@@@@X@@",
"@@@@@@+@@X@@@O X@@@O@+@X@+O@@@+@",
"@@@@@@@@o@@@@@@@@@@@+@@@@X@@@@X@",
"@@O@@@+@@@@@@@@@@@@@@@@@@@@@@@OO",
"@OX@@X@@@@@@@O+@XX@@O@@@@O@@@@@@",
"@@@@X@@@@@@@@@@@@+@@@@O@@@XXX@@@",
"X@@+@.O@@@+@@@@@@@@X@X@@@.+@@@+@",
"@@@@O@@+@@O@@@O@+@@@@@@@@@@@@@@@",
"@@@@@X@@@@OO+@@@@OX@@@@@@@+@@@@@",
"@+@@@@@@@@@O O@@@@@@@+@@@@@@@X@@",
"@@@+X@@@@@@Xo@@@@@@X@@++@@.@@O@O",
"@O@@@@@@@@@@@@OXO@@@@@@@X@O+@@@@",
"@@@@X+@@@@@@@@@@@@@X@@@@@OOO@@@@",
"@+@@@@@@@@O@+@@@@@@@+O@@@@@@@X+@",
"@@@@@@X@@@@@@@@@@@+O@@@+@OX@@@X@",
"@@@@@@@ X@@@@@@@@@+@@@@@@@@X@O@@",
"@@O@@OX@@@@@@@O@@@@@@@@@@X@@@+@@",
"+@@@@@@@@@@@@@@XX@@@@@@@O@@@@@X@",
"@O@@@@@@@@@+@@@@+@@OOO@@@@@@@@@o"
};
