/* XPM */
static char *result[] = {
/* columns rows colors chars-per-pixel */
"32 32 149 2 ",
"   c #010101",
".  c #04060B",
"X  c #09070D",
"o  c #070B11",
"O  c #090C14",
"+  c #0B0F19",
"@  c #0E131D",
"#  c #121721",
"$  c #161D2A",
"%  c #1A1E2C",
"&  c #171A26",
"*  c #17212E",
"=  c #1B222F",
"-  c #152133",
";  c #1C2432",
":  c #1F2937",
">  c #1F2939",
",  c #382527",
"<  c #31252B",
"1  c #222937",
"2  c #222C3B",
"3  c #2C2E39",
"4  c #24303E",
"5  c #2C333E",
"6  c #363133",
"7  c #3B3131",
"8  c #4E2B1B",
"9  c #5F311B",
"0  c #692715",
"q  c #5F2D23",
"w  c #532620",
"e  c #59473C",
"r  c #272E40",
"t  c #253141",
"y  c #2A3545",
"u  c #2F3944",
"i  c #2B3649",
"p  c #2E3A4C",
"a  c #363D4B",
"s  c #3B424C",
"d  c #3B4452",
"f  c #484F56",
"g  c #404B58",
"h  c #49525E",
"j  c #645757",
"k  c #7A695C",
"l  c #4B5563",
"z  c #535F6B",
"x  c #5B606B",
"c  c #596676",
"v  c #616975",
"b  c #9A250B",
"n  c #8E2E11",
"m  c #883213",
"M  c #AA2D01",
"N  c #AC340D",
"B  c #B53C07",
"V  c #BC4309",
"C  c #CC4A04",
"Z  c #D34501",
"A  c #DE4D01",
"S  c #DE5700",
"D  c #EB4B00",
"F  c #E25300",
"G  c #E35A00",
"H  c #E85A00",
"J  c #E56301",
"K  c #EE6500",
"L  c #E8650F",
"P  c #F26601",
"I  c #F36B00",
"U  c #EB7703",
"Y  c #F47401",
"T  c #F97400",
"R  c #F67A01",
"E  c #FB7C01",
"W  c #9A6C49",
"Q  c #8D6A57",
"!  c #C57647",
"~  c #FE8400",
"^  c #FE8C00",
"/  c #FF9300",
"(  c #FF9A00",
")  c #FEA200",
"_  c #FFA900",
"`  c #FFAA0C",
"'  c #FFA108",
"]  c #FEB303",
"[  c #FFB90B",
"{  c #FEBE02",
"}  c #FEBB16",
"|  c #FFC50A",
" . c #FFC518",
".. c #FED217",
"X. c #FFDB2E",
"o. c #FECD31",
"O. c #FEDE3B",
"+. c #FFE635",
"@. c #93837A",
"#. c #D19D75",
"$. c #E5A775",
"%. c #6A7987",
"&. c #677484",
"*. c #717B82",
"=. c #75808B",
"-. c #7E8A96",
";. c #7E8C98",
":. c #8D898E",
">. c #938B83",
",. c #9D9183",
"<. c #828D9B",
"1. c #838993",
"2. c #85929E",
"3. c #A89589",
"4. c #A39E97",
"5. c #8996A3",
"6. c #8A98A6",
"7. c #929DA9",
"8. c #96A4AF",
"9. c #95A5B1",
"0. c #9CAABA",
"q. c #A3AFBB",
"w. c #A5B1B8",
"e. c #C9A585",
"r. c #D4AD8C",
"t. c #DBAC85",
"y. c #D2B18F",
"u. c #DDB28A",
"i. c #DBB996",
"p. c #EAB086",
"a. c #E9BC92",
"s. c #F1C399",
"d. c #F5D0A5",
"f. c #F7D5AB",
"g. c #F9D6AB",
"h. c #FEE4BC",
"j. c #FFE0B7",
"k. c #A7B5C1",
"l. c #ABB7C1",
"z. c #B1BFC9",
"x. c #BAC4CA",
"c. c #B3C2CD",
"v. c #BBC8D3",
"b. c #C4CED4",
"n. c #CED5DA",
"m. c #CED8DF",
"M. c #D4DCDD",
"N. c #FEEBCD",
"B. c None",
/* pixels */
"B.B.B.B.B.B.B.B.B.B.B.B.B.B.~ B.B.B.B.B.B.B.B.B.B.B.B.B.B.B.B.B.",
"B.B.B.B.B.B.B.B.E / / B.B.B.~ ~ ~ B.B.B.B.Y Y B.B.B.B.B.B.B.B.B.",
"B.B.B.B.B.B.^ ^ ^ / / / / / / / / ~ ~ ^ R R R B.B.B.B.B.B.B.B.B.",
"B.B.B.R R E J J ^ / / ( ( ( / / / / ^ ^ ~ E ~ ^ U U B.B.B.B.B.B.",
"B.B.B.B.B.~ / / ` ` ` ' ( / ( / / / / / ^ R Y G B.B.B.B.B.B.B.B.",
"B.B.B.^ ^ / ) ) ..+.+.o./ ( ^ / ( ( ( ( ( ^ ~ R B.B.B.B.B.B.B.B.",
"R R ^ E R ~ _ _ { [ [ |  . .O.O.O.} ( / ( ^ / ~ ^ ^ B.B.B.B.B.B.",
"B.B.B.~ E / ( ( _ ^ ^ ^ ] [ X./ ^ ) R T ~ ^ / ~ S S K G G B.B.B.",
"B.B.B.T T ~ ~ ~ ^ T T I ^ ^ _ ( ( ^ T I P R T T H H B.B.B.B.B.B.",
"B.B.I H P I E E T P P F R T ~ R H H H H P K K P F F B.B.B.B.B.B.",
"B.B.C M M F P P H H H H H H H H H H H H H H H A Z Z F B.B.B.B.B.",
"B.B.B.V B A L L H d.d.d.H H H H H H N.N.H H H H H H B B.B.B.B.B.",
"B.B.B.B.B.F p.p.d.N.    N.H H H N.N.X   N.H H H H H B.B.B.B.B.B.",
"B.B.B.j j D $.$.d.N.    N.H H H h.N.    N.g.g.H B.B.B.B.B.B.B.B.",
"B.B.b.x x % ! ! d.N.    h.H H h.N.N.    N.s.s.B.B.B.B.B.B.B.B.B.",
"B.B.B.x.b.; 6 6 d.d.d.h.h.h.h.h.j.N.f.f.u.B.B.B.B.B.B.B.B.B.B.B.",
"B.B.B.n.n.<.O o , d.d.j.h.h.h.h.h.h.y.y.Q B.B.B.B.B.B.B.B.B.B.B.",
"B.B.B.M.M.m.b b & ; = d.d.d.g.d.d.#.j j 5 B.B.B.B.B.B.B.B.B.B.B.",
"B.B.B.B.B.B.N N w % $ = >.>.W W W k : 1 ; y y B.B.B.B.B.B.B.B.B.",
"B.B.B.B.B.a , , n 0 0 = ,.,.y.3.3.=.d d 1 = ; t B.B.B.B.B.B.B.B.",
"B.B.B.i y i 1 1 m 0 q < 5 5 4.l.k.t 2 2 : + + 2 r r B.B.B.B.B.B.",
"B.B.B.p p y 2 2 % = ; N - - s 4 r 2 r 2 > o o = : 2 B.B.B.B.B.B.",
"B.B.B.u 5 y ; ; # $ * * ; = ; : : > 2 2 ; + + ; > > B.B.B.B.B.B.",
"B.B.B.v =.2.h h @ z x -.2.2.;.;.;.<.;.<.c + + h =.*.w.B.B.B.B.B.",
"B.B.B.@.@.&.< 6 s z.z.v.-.-.7.7.7.8.c.c.0.%.%.1 &.&.:.B.B.B.B.B.",
"B.B.B.a.u.a.9 9 $ * $ 5.5.5.6.2.2.v.l l 2 + + e t.r.y.B.B.B.B.B.",
"B.B.B.a.i.i.8 8 ; > > 9.-.-.c f f 8.g g r # # e #.#.e.B.B.B.B.B.",
"B.B.B.B.B.B.; ; t t t d u u ; @ @ s 4 2 2 2 1 3 B.B.B.1.1.B.B.B.",
"B.B.B.B.B.B.i i i t t 4 = - $ $ * ; 2 > 2 4 4 i B.B.B.q.q.m.B.B.",
"B.B.B.B.B.B.i i p p p i ; ; $ = = ; t 4 t y y y B.B.B.B.B.%.B.B.",
"B.B.B.B.B.B.B.B.> 4 4 ; * $ = = - $ : 1 1 1 2 ; B.B.B.B.B.B.B.B.",
"B.B.B.B.B.B.M.M.w.*.*.d O O . . . . 5 5 v l.k.x.B.B.B.B.B.B.B.B."
};
