/* XPM */
static char *_8d6d91a1e354703a76af3b20ac59aeeoIOCJJdxykx6YNj2[] = {
/* columns rows colors chars-per-pixel */
"64 64 20 1 ",
"  c None",
". c black",
"X c #032539",
"o c #2A2A2A",
"O c #484848",
"+ c #5F5F5F",
"@ c #951E1E",
"# c #AE6631",
"$ c #CD6212",
"% c #AC5F4F",
"& c #FF8040",
"* c #DF9F75",
"= c #808080",
"- c #888888",
"; c #B7B7B7",
": c #FFAA82",
"> c #F7DAB3",
", c #C0C0C0",
"< c gray84",
"1 c white",
/* pixels */
"XXXXXXXXXXXXXXXXXXXXXXXXXXXXXXXXXXXXXXXXXXXXXXXXXXXXXXXXXXXXXXXX",
"XXXXXXXXXXXXXXXXXXXXXXXXXXXXXXXXXXXXXXXXXXXXXXXXXXXXXXXXXXXXXXXX",
"XXXXXXXXXXXXXXXXXXXXXXXXXXXXXXXXXXXXXXXXXXXXXXXXXXXXXXXXXXXXXXXX",
"XXXXXXXXXXXXXXXXXXXXXXXXXXXXXXXXXXXXXXXXXXXXXXXXXXXXXXXXXXXXXXXX",
"XXXXXXXXXXXXXXXXXXXXXXXXXXXXXXXXXXXXXXXXXXXXXXXXXXXXXXXXXXXXXXXX",
"XXXXXXXXXXXXXXXXXXXXXXXXXXXXXXXXXXXXXXXXXXXXXXXXXXXXXXXXXXXXXXXX",
"XXXXXXXXXXXXXXXXXXXXXXXXXXXXXXXXXXXXXXXXXXXXXXXXXXXXXXXXXXXXXXXX",
"XXXXXXXXXXXXXXXXXXXXXXXXXXXXXXXXXXXXXXXXXXXXXXXXXXXXXXXXXXXXXXXX",
"XXXXXXXXXXXXXXXXXXXXXXXXXXX.XXX.XXXX.XXXXXXXXXXXXXXXXXXXXXXXXXXX",
"XXXXXXXXXXXXXXXXXXXXXXXXXXX.XX.$XXX.$XXXXXXXXXXXXXXXXXXXXXXXXXXX",
"XXXXXXXXXXXXXXXXXXXXXXXXXX.&..&.X..&$XXXXXXXXXXXXXXXXXXXXXXXXXXX",
"XXXXXXXXXXXXXXXXXXXXXXXXXX.&.$&..$&&.XXXXXXXXXXXXXXXXXXXXXXXXXXX",
"XXXXXXXXXXXXXXXXXXXXXXX....&$&&$&&&$..$$$.XXXXXXXXXXXXXXXXXXXXXX",
"XXXXXXXXXXXXXXXXXXXXXXXX..$&$&&&&&&&&&&&.XXXXXXXXXXXXXXXXXXXXXXX",
"XXXXXXXXXXXXXXXXXXXXXXX.$$&&&&:&&&&&&&..XXXXXXXXXXXXXXXXXXXXXXXX",
"XXXXXXXXXXXXXXXXXXXXX.&&&&:::&&&&&&&$...XXXXXXXXXXXXXXXXXXXXXXXX",
"XXXXXXXXXXXXXXXXXXXXXX.&&&&:&&&&&$&&&&&&&.XXXXXXXXXXXXXXXXXXXXXX",
"XXXXXXXXXXXXXXXXXXXXXXX.$$&&&&$$&*&&&$...XXXXXXXXXXXXXXXXXXXXXXX",
"XXXXXXXXXXXXXXXXXXXXXX.$$$$&&*>>&>&$&&..XXXXXXXXXXXXXXXXXXXXXXXX",
"XXXXXXXXXXXXXXXXXXXXXX.$$$$&&*>>&>&$&&..XXXXXXXXXXXXXXXXXXXXXXXX",
"XXXXXXXXXXXXXXXXXXXXX.$$$$.&&..>>*&*$&&&.XXXXXXXXXXXXXXXXXXXXXXX",
"XXXXXXXXXXXXXXXXXXXXXX.$..*$&1@..*>>..XXXXXXXXXXXXXXXXXXXXXXXXXX",
"XXXXXXXXXXXXXXXXXXXXXXX...*%&1@@>>*>.$XXXXXXXXXXXXXXXXXXXXXXXXXX",
"XXXXXXXXXXXXXXXXXXXXXX.$..*%*>>>>>*>.X$$XXXXXXXXXXXXXXXXXXXXXXXX",
"XXXXXXXXXXXXXXXXXXXXXXXXXX..*>>>>>>>.XXXXXXXXXXXXXXXXXXXXXXXXXXX",
"XXXXXXXXXXXXXXXXXXXXXXXX$$$.%*>>>>>.XXXXXXXXXXXXXXXXXXXXXXXXXXXX",
"XXXXXXXXXXXXXXXXXXXXXXX.....%%***%..XXXXXXXXXXXXXXXXXXXXXXXXXXXX",
"XXXXXXXXXXXXXXXXXXXXX..OOO++%*%.....XXXXXXXXXXXXXXXXXXXXXXXXXXXX",
"XXXXXXXXXXXXXXXXXXXX.o++++++O**.**O..XXXXXXXXXXXXXXXXXXXXXXXXXXX",
"XXXXXXXXXXXXXXXXXXXX.+++++++O%***%+O.XXXXXXXXXXXXXXXXXXXXXXXXXXX",
"XXXXXXXXXXXXXXXXXXX.++++ooo++O<<;<++..XXXXXXXXXXXXXXXXXXXXXXXXXX",
"XXXXXXXXXXXXXXXXXX.+++O...O+++O;;O++..XXXXXXXXXXXXXXXXXXXXXXXXXX",
"XXXXXXXXXXXXXXXXXX.+++O...O+++O;;O++..XXXXXXXXXXXXXXXXXXXXXXXXXX",
"XXXXXXXXXXXXXXXXX.+++OO.ooOO+++++++O..XXXXXXXXXXXXXXXXXXXXXXXXXX",
"XXXXXXXXXXXXXXXX.O+++O.ooooo+++++++O..XXXXXXXXXXXXXXXXXXXXXXXXXX",
"XXXXXXXXXXXXXXX.O+++OO....oOOO+<<+OO.O..XXXXXXXXXXXXXXXXXXXXXXXX",
"XXXXXXXXXXXXXX.oO+++O.XXXX.OO++;;++.oO..XXXXXXXXXXXXXXXXXXXXXXXX",
"XXXXXXXXXXXXXX.O+O+O+.XXXX.oOO;<<;O.OOoo.XXXXXXXXXXXXXXXXXXXXXXX",
"XXXXXXXXXX....%;+++++.XX..;oOO++++O.OOOO.XXXXXXXXXXXXXXXXXXXXXXX",
"XXXXXXXXXX.oo.*><<;+.XXX..<<;;O++O;..OOOO.XXXXXXXXXXXXXXXXXXXXXX",
"XXXXXXXXX,...%>>>..;.XX.OOO;<<<<<<;;.oOO;.XXXXXXXXXXXXXXXXXXXXXX",
"XXXXXXXXX, ..*>>*>......OOO++O;<O<;O.;;;.XXXXXXXXXXXXXXXXXXXXXXX",
"XXXXXXXXX==...*>*...-+.OOOO+++<;O;<O.%**.XXXXXXXXXXXXXXXXXXXXXXX",
"XXXXXXXXX,XXXX..>.oo-+....++O;<OOo<;.***.XXXXXXXXXXXXXXXXXXXXXXX",
"XXXXXXXXX,XXXXXX...++o+---...<;Ooo;<O.%%.XXXXXXXXXXXXXXXXXXXXXXX",
"XXXXXXXXX,XXXXXX...++o+---...<;Ooo;<O.%%.XXXXXXXXXXXXXXXXXXXXXXX",
"XXXXXXXX==XXXXXXXX.....+++--+...oOOoO...XXXXXXXXXXXXXXXXXXXXXXXX",
"XXXXXXXX,XXXXXXXXXX.O+.....+--++...oO.XXXXXXXXXXXXXXXXXXXXXXXXXX",
"XXXXXXXX,XXXXXXXXX.+++OOooo...-----...XXXXXXXXXXXXXXXXXXXXXXXXXX",
"XXXXXXXX==XXXXXXX.++++O+++OO+O...++--+...XXXXXXXXXXXXXXXXXXXXXXX",
"XXXXXXXX,XXXXXXX.++++O++++OO++OOo...+---+..XXXXXXXXXXXXXXXXXXXXX",
"XXXXXXXX,XXXXXX.++++++++++O++++OOooo....--+.XXXXXXXXXXXXXXXXXXXX",
"XXXXXXX==XXXXX.o+++O+++++++++++OOooOOoOO...XXXXXXXXXXXXOXXXXXXXX",
"XXXXXXX=XXXXX.O+++O.o+++OO++++OOOOOOOOOO.XXXXXXXXXXXXXXXXXXXXXXX",
"XXXXXXXXXXXXX.++OOOo.<oOOO++++OOOoOOO.OOo.XXXXXXXXXXXXOXXXXXXXXX",
"XXXXXXXXXXX..O++Oooo.<;...++++Oo..OO.oooOo.XXXXXXXXXXO...XXXXXXX",
"XXXXXXXXXXX..++OoOO.;<;.OO+++OOoO.;O;...OOo..XXXXXO...oOOOOXXXXX",
"XXXXXXXXXXX..O+OOOo.#<.OOOO++OooO.;;#;;;.OOOO......OOOOo..XXXXXX",
"XXXXXXXXXXX..O+OOOo.#<.OOOO++OooO.;;#;;;.OOOO......OOOOo..XXXXXX",
"XXXXXXXXXXXXX.++OO.;;#.XXXXXXXXXXXXXXXXXXXXXXXXXXXXXXXXXXXXXXXXX",
"XXXXXXXXXXXXXXXXXXXXXXXXXXXXXXXXXXXXXXXXXXXXXXXXXXXXXXXXXXXXXXXX",
"XXXXXXXXXXXXXXXXXXXXXXXXXXXXXXXXXXXXXXXXXXXXXXXXXXXXXXXXXXXXXXXX",
"XXXXXXXXXXXXXXXXXXXXXXXXXXXXXXXXXXXXXXXXXXXXXXXXXXXXXXXXXXXXXXXX",
"XXXXXXXXXXXXXXXXXXXXXXXXXXXXXXXXXXXXXXXXXXXXXXXXXXXXXXXXXXXXXXXX"
};
