/* XPM */
static char *result[] = {
/* columns rows colors chars-per-pixel */
"32 32 84 1 ",
"  c black",
". c #010000",
"X c #000100",
"o c #000001",
"O c #000002",
"+ c #010002",
"@ c #000102",
"# c #010102",
"$ c #000003",
"% c #010003",
"& c #000103",
"* c #010103",
"= c #0C0A16",
"- c #0D0A16",
"; c #0D0B16",
": c #0C0A17",
"> c #0D0A17",
", c #0C0B17",
"< c #0D0B17",
"1 c #421020",
"2 c #421120",
"3 c #401A22",
"4 c #7F3F38",
"5 c #0E1E46",
"6 c #0F1E46",
"7 c #0E1F46",
"8 c #0F1F46",
"9 c #0F1E47",
"0 c #0E1F47",
"q c #0F1F47",
"w c #353C5E",
"e c #343D5E",
"r c #353D5E",
"t c #343C5F",
"y c #353C5F",
"u c #343D5F",
"i c #353D5F",
"p c #86102A",
"a c #87102A",
"s c #86112A",
"d c #86102B",
"f c #86112B",
"g c #90352F",
"h c #FE6A00",
"j c #FF6A00",
"k c #FE6B00",
"l c #FF6B00",
"z c #FE6A01",
"x c #FF6A01",
"c c #FF6B01",
"v c #A24C56",
"b c #A34C56",
"n c #A24C57",
"m c #A34C57",
"M c #A24D57",
"N c #A34D57",
"B c #FEA400",
"V c #FFA400",
"C c orange",
"Z c #FFA401",
"A c #FFA501",
"S c #027E86",
"D c #037E86",
"F c #027F86",
"G c #037F86",
"H c #027E87",
"J c #037E87",
"K c #037F87",
"L c #FAB6A4",
"P c #FBB6A4",
"I c #FAB7A4",
"U c #FBB7A4",
"Y c #FAB6A5",
"T c #FBB6A5",
"R c #FAB7A5",
"E c #D9E0EA",
"W c #D9E1EA",
"Q c #D8E0EB",
"! c #D9E0EB",
"~ c #D8E1EB",
"^ c #D9E1EB",
"/ c #F1FEE8",
"( c #F1FFE8",
") c None",
/* pixels */
")))))))))))#VO*)#CA#))))))))))))",
")))))#+dhjxjplhBhppjC+#V#)))))))",
")))#BZVjhjjxljjczjjhjjhjB++)))))",
"@lhjppdVkjjjjjhxjjxjjVVhhVV#))))",
"#VABjjxjjxjljdpZjjjjljjZhVB#))))",
")*#ppsflhss#BjhxdXX#Osslx+#)))))",
")))))##jp##@@ss@m(/g3mn#))))))))",
")))))))@ppp&TIIIIYPYPLLR@)))))))",
")))))))))##vnXX mnMLP#@)))))))))",
"))))))))*dp+Nbnn*)). )))))))))))",
")))))))#JDDS@+*p@)))))))))))))))",
")))))#@JSFGDSDJD#pa&))))))))))))",
"))))@DDJDJKDJiiDSDD##)))))))))))",
"))))#GDKDGKGi##eiJDDSDD#))))))))",
"))))#GGDJJDDi#*irDDJSGSD#)))))))",
"))))*GDDSDGii##riiiSDDDJD@%)))))",
")))*SDDGDFDui#*iryiiSDDDS#+)))))",
")++KJGGJSiie@iwriiiyiyyi#&#)))))",
")##JJSDDDyyi#*#*@*#*4444  o)))))",
")*#SDyuirywi@iiiuyiyruiDDHD&))))",
"))))oLLv###*ritruywrwKSDD@#8#)))",
"))).LLLLMX uiytiuriiSGGDD$@8#)))",
")))X.UIn.>>>>@+##+*#+*###8888+#)",
")))))))+>:<:->>O>>>-><>q86678#@)",
")))))))#><:>>X >=->>,<<>qq88887#",
")))))+#>>->> :>>::;-:88q87888#*)",
")))))+#=:,;> -->>-:>>59088889##)",
"))))@>-->>< :>>-><>-::<7q898+)))",
"))))#><>: .><>>>:--,=;<><>-#))))",
")))))))#~W^E~22#**#+##+%))))))))",
")))))))#^#*#^^!^1++)))))))))))))",
")))))))*~EQ^^~^*###)))))))))))))"
};
