/* XPM */
static char *ebd28404abb44f55ca302a0c563f1b8djvUDjunGVAIwB6hs[] = {
/* columns rows colors chars-per-pixel */
"64 64 86 1 ",
"  c #050507",
". c #0B0C0D",
"X c #0E0F11",
"o c #100F12",
"O c #0F1012",
"+ c #111314",
"@ c #151619",
"# c #16191B",
"$ c #191B1E",
"% c #1B1D21",
"& c #1E2123",
"* c #212326",
"= c #23252A",
"- c #26292D",
"; c #282A2E",
": c #272C31",
"> c #2A2E32",
", c #2D3135",
"< c #2E3339",
"1 c #313337",
"2 c #31363B",
"3 c #34393E",
"4 c #393B3F",
"5 c #363B41",
"6 c #393E43",
"7 c #3C4146",
"8 c #3E444A",
"9 c #414347",
"0 c #42464C",
"q c #43484E",
"w c #454B52",
"e c #494E55",
"r c #484F58",
"t c #4B5057",
"y c #4C535B",
"u c #51565D",
"i c #54595F",
"p c #4F5660",
"a c #505761",
"s c #545B64",
"d c #555C66",
"f c #595C62",
"g c #585C63",
"h c #5A5F65",
"j c #5C5F66",
"k c #575E68",
"l c #595F69",
"z c #5B6067",
"x c #5C6066",
"c c #5A606A",
"v c #5B626B",
"b c #5D6268",
"n c #5E636D",
"m c #5D646E",
"M c #5F6670",
"N c #60646D",
"B c #62666D",
"V c #60646F",
"C c #62666F",
"Z c #65686F",
"A c #616771",
"S c #636871",
"D c #646870",
"F c #656870",
"G c #646B73",
"H c #666C73",
"J c #666B75",
"K c #666D76",
"L c #686B72",
"P c #686C73",
"I c #686B75",
"U c #6A6E76",
"Y c #6B6F76",
"T c #676D78",
"R c #6B6F78",
"E c #697077",
"W c #6C7077",
"Q c #6D7279",
"! c #6F737A",
"~ c #70747A",
"^ c #71747B",
"/ c #72757D",
"( c #74777F",
") c #74787F",
"_ c #767A81",
"` c #797C83",
/* pixels */
"VFVy23(FVVFVd8,zAKSct-i^nSSAAs62FVSPg7,VUmSSVct,0UFSmi36UVMFmSlw",
"qw07--yqwwwq02*7w8w76%6wqwqqq7,=qqwq71=qqwwqqq6=,rqw07>>wqrqqq05",
";%;,%$,,=&>,,-#=>*%>>$*,>*=>,,*%;>%=,=#;,>%=,,,#&>-$>>*%>>=%>,,-",
"6%qhbxiy,-ubhsgyw>%ijbgiw-1gbssst0#6gbxsu7%7bxihie6#uhbhit3$ubgs",
"q;VQJAAs53LWFScly6;^RAFct20QFEbldr=u/ISSdq>iQFHccsw*W^FSmiq-UUUV",
"7:bFmsrt33Vmcstyw6;FVcyye<7Smcyytq*uFmdyy8>iFcltte8*UmAsyt8-VAba",
"7=yywqr82,ewwqwq85=stwww7,2rqqqqq8&wseqeq6-7rw8wq87&hteww87=rwqq",
"-+%-,,,,&@==><<,,#+=><<<>##=-<,,,>+#-><,,>+%=>,<,,=+*-,<<<&+==><",
"q7=-eerwq8,Xqttrw06#2urrwq7%=utrew82#0trrqq3#4ttreq8&%ytreq8,$0y",
"by30QUKSnsw%Q/FJmkr,u^UKSky,0`QFFmsw>FQKFmkr-g_FFScy33(UKKcs72L/",
"dt20Vmmnlaq%WUUSkdq,tFmmcdt>0_FUmky7>nVmmkse-gEUKcde33UVmnds63FF",
"sw20mFJksyq%Fmnldyq,eKFAdse>0FVVdst7>bSHcsye-iMnbdse32UJSldr63hm",
"se28cnlssyq%FMddss8,rmnddst>0FAddst7>bncdssw-iFhdssw32Fchdsy62hF",
"tq<6dsyytw8%bsayyw8,qlyaprq>7nsaytw7:sdpyyr8-issyyrq3<cspatw52ss",
"76->qqwq773+wqww776*3qqwq77*>t8wq773%qwqw875%6qqw877-=eqww77,*q8",
":-&&$#;::>=#-=#=:>-%&#&:>>:%%>&#-::=%&#=:>:-%=>#%>>:%$&%->:>=%-=",
"bbby>;VzhbVxs6=tbVbhw&0Zibbbxy3;gbbVs5=ibsbbbhe=3VVbby<,xshVbbi7",
"dcdt<3Rnndccs6,scclsw-iAbbhlmt62bdlcy6,xnVlkchw,0Vhcdr36VbMckms8",
"7766&%q677766,#286763#,8777766-%67766,#67677766#=87766-*76767662",
"=+=1,>1,%@>11,>>>#+,1>,1>##,11,>>-O&1,>,1-+*111>>>*X>1,,1>&+>11,",
"q=sUUPVs3,VUFVVdy3*LUPFbt,6PPZVbsr%wPUFVlw=tQPVVbaq%VUUFVs7*VULV",
"8;VUFnsy33ZFMcsst6;WJAbst<0HVFdssw=uQFMksq>iUAAssyq*UKSmdy8;FFFl",
"7-hmdyye33chsytrq6-Fnsyyq<6bdsttw8*uSciyt7>tndyttw7*Pccyyw8-ccsy",
"6#7w8888,=7888888>#wq8887=>8888887#3r88886%3q888883#ww88883#8888",
"*#@#=;;-&#$+=----%#+%;;;-%%@#----=#@+=;;;=##@&----*#@@--;:&##@*-",
"sr<2VVbbsy7@bFVVcae=qFVVbay-2PZbbhy8*gZVbsaw*eLVVbsy>;FVVnsy6-sF",
"cy30UFAmcaw%QQFAble,uQFAMky>0`USmnsq>FUSAche-g/FSmcy33/KAAcs63LR",
"sw20VVVcdpq%UFUmdy8,eFnAlst>0^VUcdt7>VVVndse-gSUFlsw32UmVcdy63VV",
"st20cFAdsyq%HSckdsw,rAJldst>0FScddy7>bVFldir-sFcldsr32FSmddt63hT",
"yw20mcdsayq%Fcddsy7,rSkdsyr>0Scddpt7>bmkdpsw-icddsaq32Jcdsyy63hn",
"e8<3yyyyrq7#hyyytw7,8yyyyw8;6lyptr87-ypyytw8-tppytw82,syyyr83<iy",
"2<&*533322>X533322,#>533322$*723332>@353332,#,533322&%633322-#33",
"662,%#65663,3>#,666,:#-6366223=$2663,=#16563132#*6662>*%3366313>",
"mAVi,>QVnVFbd7;iVFVcr=rWcVVVns5,VVVFg7;jLcVVVbt:7FVSmy33ZbbSmVdq",
"yiyw<2Visiiit6,tsystq=tgisiysw61sisyr6,sissiiyq,6hisyw33hydiiitq",
">:>>+.>>>:>>>&.&>::>=.#>>:>>>:#O->::>%.=>>:>>>>.@>>:>:#+->::>>>&",
",+200097=#6000q76&+900095$*90q0963O-000073+>q09q96>.60q007-+60qq",
"q-V/QQSd63P/QJFba7;^/QUVy30/QQFVlt=u/^QJnw>i(QLJVsw*U/QWSsq;U/QJ",
"8;bJVlsy33FVnliae6;USnhie20HASsayw=uRAcss8>iUmmaatq*UFVlst8-FSSs",
"7-ssyetw32iytwewq6-bsteeq25attewwq=tcyrrw7>watwewq7&Vsyerw7=ayte",
";.-3332<&+,322332#.23233<@#<23232,.%53333>.*333232=.233233*.,333",
",>@@,222<<% >21<<,:.%3221<>++222<<,&.;322<<=.*11<<,,OX2222<,&.-2",
"ms60/QUFnse%Q_QRJcy1i)EUJls,0`)WUSde>P/RUmct>g`^QUms53_QUUcs82F_",
"kt30FFVmciq%QQFAldw,yKVVmdt>0_FSmcy8>VFAVcde-gQFSnkr33QSVVks63LU",
"se20mVScsyq%PAFndiq,eJAAksr>0UVFldt7>bASndae-gAFAkse33UAAldy63VV",
"se20cVbdsyq%HAkddsq,rAmldst>0FSldsy7>bnmksse-iFlkdsw33Incdsy63hK",
"yw26ccapae7%Fdsast8,wmsssyw>0Adspyw7>hcspayq-skdpayq32Vkaspe53hl",
"88,3ttttq87#ytttw87>7tttr88-3setrq87=ttttw87=wttte88<,yrttq83>te",
"2,&&>>2222-O1<>,22,#=>,222<$%3,>,22-@>>,222>@;3;>222$#<><222=#,<",
"0q06%#q000q07>@30q002@>q700006=$700q7;@60700005@=q0006=&970q007,",
"VVVy<2QAAVAVh7>gVFVlr=uKnFVVFy61VVVAs7>bFAVVVmr>9FVVVy34ZmSAVFhq",
"wewq-=iwrerwq3&7twrq7%6ywrrwwq,=wwrwq2*wrwreww0*,ywrw0>:rwtwrwq6",
"#X@#+X##@X##%@X@#+X##o@%#O+###++##X+%@X#%#X@%%%X+#@X##++##@X###@",
"8%tVVVVs3;gZVVVst1%bVVVVy>2VZVVbie#7VZVVzw&0FVVVhy7#gVVVVs6%gZVV",
"8:VQUFci53PQFnbly6;QQUFdt20^UJccde*uQQUmsq>i/UVnbaq*UQUJbi8;UQUb",
"7-bAcast33bblsyyw6;Kmdsyw<7Vlcyytq=uJnssy8>yVhdyye0*UVbsit0-bbca",
"6&rywqwq<>rrwqqq82&itwqw8><rwwqqq8%7irwqq7*7twqqqq6%itwwqq6&rrwq",
"#.@$&&&&@X##%&&&&+.#%&&&%++##&&&&%.+%%&&&%.@$%&&&&#.#$&&&&@.##%&",
"tw:;ixxhyt3Xyhhhsrw$6xxxste*-hhhhir6#exxzyt8$7ghhhyr**hxxhtr3%eh",
"My50QHAVnsw%Q/JSmct,i/SAVcy,0`QSAAsw>FQSVccr;g_UFmna33)UVVms73L/",
"sr20AVSmdyq%UFFVksq,yKVSnst>0/VJndy7>VSSSlse-gUFScse32ESSmdy63ZA",
"se20nAAdsyq%PSAcdaq,rSVndst>0UFAkdt7>bmAldae-sSSmdsw32KVmddy63bF",
"ye20nmbssyq%Fnddsa8,rSndssr>0Fmddst7>bAcdasw-sMldssw32Umlday63hA",
"tq25ssapyw8%bsspyw8,qspasrq>7nssyyw7:asappe8-issyyrq3<haasyw52ss"
};
