/* XPM */
static char *db8954e52aaa4e92a5e2d8f984152a31to9XJSsGukjMVOHg[] = {
/* columns rows colors chars-per-pixel */
"32 32 2 1 ",
"  c black",
". c #FFFDFD",
/* pixels */
"                                ",
"                                ",
"                                ",
"                                ",
"                                ",
"................................",
"................................",
"................................",
"................................",
"................................",
"................................",
"................................",
"................................",
"................................",
"................................",
"................................",
"................................",
"................................",
"................................",
"................................",
"................................",
"................................",
"................................",
"................................",
"................................",
"................................",
"................................",
"                                ",
"                                ",
"                                ",
"                                ",
"                                "
};
